<svg width="128" height="128" viewBox="0 0 128 128" fill="none" xmlns="http://www.w3.org/2000/svg">
<path d="M128 29.104V103.285C128 108.107 124.096 112.011 119.275 112.011H98.9067V62.56L64 88.7467L29.0933 62.56V112.016H8.72534C7.57906 112.016 6.44402 111.79 5.38506 111.351C4.32611 110.913 3.364 110.269 2.55371 109.459C1.74341 108.648 1.10082 107.685 0.662647 106.626C0.224471 105.567 -0.000699028 104.432 1.63014e-06 103.285V29.104C1.63014e-06 18.3147 12.3147 12.1547 20.944 18.6293L29.0933 24.7467L64 50.9227L98.9067 24.736L107.056 18.6293C115.68 12.16 128 18.3147 128 29.104Z" fill="#78DCE8"/>
</svg>
