<svg width="128" height="128" viewBox="0 0 128 128" fill="none" xmlns="http://www.w3.org/2000/svg">
<g clip-path="url(#clip0_78_8)">
<path fill-rule="evenodd" clip-rule="evenodd" d="M64 128C99.3493 128 128 99.3493 128 64C128 28.6507 99.3493 0 64 0C28.6507 0 0 28.6507 0 64C0 99.3493 28.6507 128 64 128ZM35.7632 33.8347V55.6075C39.0741 51.6565 43.0485 49.6661 47.6565 49.6661C50.0288 49.6661 52.1536 50.1205 54.0565 51.0208C55.9723 51.9168 57.4016 53.0624 58.3659 54.4555C59.3365 55.8571 59.9915 57.3995 60.3456 59.0933C60.6997 60.7787 60.8747 63.4027 60.8747 66.9653V90.2443H50.5749V69.28C50.5749 65.12 50.3893 62.4832 49.9989 61.3653C49.6064 60.2347 48.9195 59.3515 47.9296 58.6987C46.9397 58.0288 45.7045 57.696 44.2133 57.696C42.5067 57.696 40.9749 58.1269 39.648 58.976C38.2869 59.8293 37.3077 61.1008 36.6912 62.8053C36.0619 64.512 35.7483 67.0293 35.7611 70.368L35.7483 90.2443H25.4613V33.8389H35.7611L35.7632 33.8347ZM76.3136 33.8347V55.6075C79.6288 51.6565 83.5989 49.6661 88.2069 49.6661C90.5707 49.6661 92.7083 50.1205 94.6219 51.0208C96.5248 51.9168 97.9541 53.0624 98.9163 54.4555C99.8869 55.8571 100.546 57.3995 100.896 59.0933C101.25 60.7787 101.429 63.4027 101.429 66.9653V90.2443H91.136V69.28C91.136 65.12 90.944 62.4832 90.5515 61.3653C90.1589 60.2347 89.4741 59.3515 88.4821 58.6987C87.5008 58.0288 86.2549 57.696 84.7637 57.696C83.0571 57.696 81.5275 58.1269 80.1984 58.976C78.8544 59.8293 77.8731 61.1008 77.2437 62.8053C76.6251 64.512 76.3136 67.0293 76.3136 70.368V90.2443H66.0267V33.8389H76.3136V33.8347Z" fill="#78DCE8"/>
</g>
<defs>
<clipPath id="clip0_78_8">
<rect width="128" height="128" fill="white"/>
</clipPath>
</defs>
</svg>
