<svg width="128" height="128" viewBox="0 0 128 128" fill="none" xmlns="http://www.w3.org/2000/svg">
<g clip-path="url(#clip0_78_6)">
<path d="M63.7013 0.000174222C46.7793 0.0791446 30.5773 6.85683 18.6394 18.8506C6.70164 30.8444 -0.000184262 47.0779 3.79965e-09 64.0002C3.79968e-09 80.974 6.74284 97.2527 18.7452 109.255C30.7475 121.257 47.0261 128 64 128C80.9739 128 97.2525 121.257 109.255 109.255C121.257 97.2527 128 80.974 128 64.0002C128 47.0263 121.257 30.7477 109.255 18.7453C97.2525 6.74301 80.9739 0.000174222 64 0.000174222C63.9004 -5.80741e-05 63.8009 -5.80741e-05 63.7013 0.000174222ZM90.1653 38.5282C90.6987 38.5175 91.8773 38.6508 92.6453 39.2748C93.1557 39.718 93.4811 40.3366 93.5573 41.0082C93.6427 41.5042 93.7493 42.6402 93.664 43.5255C92.704 53.6482 88.5333 78.2028 86.4107 89.5362C85.5147 94.3362 83.7493 95.9415 82.0373 96.0962C78.3253 96.4428 75.504 93.6428 71.904 91.2855C66.272 87.5895 63.088 85.2908 57.6213 81.6855C51.3013 77.5255 55.3973 75.2322 58.9973 71.4988C59.9413 70.5175 76.3147 55.6215 76.6347 54.2722C76.672 54.1015 76.7093 53.4722 76.336 53.1415C75.9627 52.8108 75.408 52.9228 75.008 53.0135C74.4427 53.1415 65.4453 59.0935 48.016 70.8535C45.456 72.6135 43.1467 73.4668 41.072 73.4135C38.7893 73.3708 34.3947 72.1282 31.1253 71.0668C27.1147 69.7602 23.9307 69.0722 24.208 66.8588C24.352 65.7068 25.9413 64.5282 28.9707 63.3228C47.6267 55.1948 60.064 49.8348 66.2933 47.2482C84.064 39.8562 87.76 38.5708 90.1653 38.5282Z" fill="#78DCE8"/>
</g>
<defs>
<clipPath id="clip0_78_6">
<rect width="128" height="128" fill="white"/>
</clipPath>
</defs>
</svg>
