<svg width="128" height="128" viewBox="0 0 128 128" fill="none" xmlns="http://www.w3.org/2000/svg">
<g clip-path="url(#clip0_78_20)">
<path d="M93.184 76.7042C91.6 75.9095 83.808 72.0802 82.3573 71.5468C80.9013 71.0188 79.8453 70.7575 78.784 72.3468C77.7333 73.9308 74.6933 77.4988 73.7706 78.5548C72.848 79.6162 71.92 79.7442 70.336 78.9548C68.752 78.1548 63.6426 76.4855 57.5893 71.0882C52.88 66.8855 49.696 61.6962 48.7733 60.1068C47.8506 58.5228 48.6773 57.6642 49.4666 56.8748C50.1813 56.1655 51.056 55.0242 51.8453 54.1015C52.64 53.1735 52.9013 52.5122 53.4346 51.4508C53.9626 50.3948 53.7013 49.4722 53.3013 48.6775C52.9013 47.8828 49.7333 40.0802 48.416 36.9068C47.1253 33.8188 45.8186 34.2402 44.848 34.1868C43.9253 34.1442 42.8693 34.1335 41.808 34.1335C40.752 34.1335 39.0346 34.5282 37.584 36.1175C36.1333 37.7015 32.0373 41.5362 32.0373 49.3388C32.0373 57.1362 37.7173 64.6722 38.5066 65.7335C39.3013 66.7895 49.6853 82.8002 65.584 89.6642C69.3653 91.2962 72.3146 92.2722 74.6186 92.9975C78.416 94.2082 81.872 94.0375 84.5973 93.6268C87.6426 93.1735 93.9733 89.7922 95.296 86.0908C96.6186 82.3895 96.6186 79.2162 96.2186 78.5548C95.824 77.8935 94.7733 77.4988 93.184 76.7042ZM64.2666 116.187H64.2453C54.8041 116.188 45.5364 113.649 37.4133 108.837L35.488 107.696L15.536 112.933L20.8586 93.4775L19.6053 91.4828C14.3276 83.0789 11.5356 73.3532 11.552 63.4295C11.5573 34.3628 35.2106 10.7148 64.288 10.7148C78.368 10.7148 91.6053 16.2082 101.557 26.1708C106.468 31.0594 110.36 36.8734 113.008 43.2761C115.656 49.6789 117.009 56.5433 116.987 63.4722C116.971 92.5388 93.3226 116.187 64.2666 116.187ZM109.136 18.6028C103.26 12.6877 96.2679 7.99769 88.5658 4.80443C80.8637 1.61116 72.6044 -0.021801 64.2666 0.000157512C29.3066 0.000157512 0.853288 28.4535 0.837288 63.4242C0.837288 74.6028 3.75462 85.5148 9.30662 95.1308L0.303955 128L33.9306 119.179C43.2298 124.245 53.6503 126.9 64.24 126.901H64.2666C99.2213 126.901 127.68 98.4482 127.696 63.4722C127.722 55.1376 126.095 46.8807 122.909 39.179C119.723 31.4773 115.042 24.4837 109.136 18.6028Z" fill="#78DCE8"/>
</g>
<defs>
<clipPath id="clip0_78_20">
<rect width="128" height="128" fill="white"/>
</clipPath>
</defs>
</svg>
